<svg width="1025" height="766" viewBox="0 0 1025 766" fill="none" xmlns="http://www.w3.org/2000/svg">
<rect width="1025" height="766" fill="white"/>
<g opacity="0.9">
<ellipse cx="381.309" cy="85.4083" rx="5.51946" ry="5.51946" transform="rotate(19 381.309 85.4083)" fill="#A7B5FF" fill-opacity="0.1"/>
</g>
<g opacity="0.9">
<circle cx="760.788" cy="71.7875" r="5.51946" transform="rotate(139 760.788 71.7875)" fill="#A7B5FF" fill-opacity="0.1"/>
</g>
<g opacity="0.9">
<circle r="5.51946" transform="matrix(0.800068 -0.59991 0.599911 0.800067 339.727 532.728)" fill="#A7B5FF" fill-opacity="0.1"/>
</g>
<g opacity="0.7">
<ellipse cx="769.221" cy="711.188" rx="10.119" ry="10.119" transform="rotate(-177 769.221 711.188)" fill="#A7B5FF" fill-opacity="0.1"/>
</g>
<g opacity="0.7">
<circle cx="65.6091" cy="681.61" r="8.64716" transform="rotate(63 65.6091 681.61)" stroke="#A7B5FF" stroke-opacity="0.1" stroke-width="2.94371"/>
</g>
<g opacity="0.7">
<ellipse cx="807.249" cy="327.711" rx="10.119" ry="10.119" transform="rotate(-177 807.249 327.711)" fill="#A7B5FF" fill-opacity="0.1"/>
</g>
<g opacity="0.89">
<path d="M109.025 173.547L107.692 183.035" stroke="#A7B5FF" stroke-opacity="0.1" stroke-width="2.94371" stroke-linecap="round"/>
<path d="M103.615 177.623L113.104 178.957" stroke="#A7B5FF" stroke-opacity="0.1" stroke-width="2.94371" stroke-linecap="round"/>
</g>
<g opacity="0.89">
<path d="M879.975 318.121L872.424 312.222" stroke="#A7B5FF" stroke-opacity="0.1" stroke-width="2.94371" stroke-linecap="round"/>
<path d="M879.148 311.396L873.249 318.947" stroke="#A7B5FF" stroke-opacity="0.1" stroke-width="2.94371" stroke-linecap="round"/>
</g>
<g opacity="0.87">
<path d="M245.168 215.561L241.239 207.849" stroke="#A7B5FF" stroke-opacity="0.1" stroke-width="2.94371" stroke-linecap="round"/>
<path d="M247.059 209.74L239.347 213.669" stroke="#A7B5FF" stroke-opacity="0.1" stroke-width="2.94371" stroke-linecap="round"/>
</g>
<g opacity="0.99">
<circle r="5.1515" transform="matrix(-0.575527 0.817783 -0.817784 -0.575526 808.229 133.72)" stroke="#A7B5FF" stroke-opacity="0.1" stroke-width="2.94371"/>
</g>
<g opacity="0.99">
<circle r="5.1515" transform="matrix(0.515037 -0.857168 0.857167 0.515039 828.577 499.841)" stroke="#A7B5FF" stroke-opacity="0.1" stroke-width="2.94371"/>
</g>
<g opacity="0.99">
<circle cx="547.255" cy="413.83" r="5.1515" transform="rotate(-179 547.255 413.83)" stroke="#A7B5FF" stroke-opacity="0.1" stroke-width="2.94371"/>
</g>
<g opacity="0.8">
<path d="M831.585 42.0717L829.981 35.7074C829.682 34.5232 830.786 33.419 832.032 33.7797L838.391 35.6195C839.638 35.9802 839.981 37.503 839.097 38.3448L834.342 42.8693C833.43 43.7369 831.893 43.2921 831.585 42.0717Z" stroke="#A7B5FF" stroke-opacity="0.1" stroke-width="2.94371"/>
</g>
<g opacity="0.79">
<path d="M541.983 157.701L544.246 149.086C544.773 147.081 547.302 146.375 548.827 147.901L555.18 154.253C556.705 155.778 556 158.308 553.994 158.835L545.379 161.097C543.338 161.633 541.447 159.742 541.983 157.701Z" stroke="#A7B5FF" stroke-opacity="0.1" stroke-width="2.94371"/>
</g>
<g opacity="0.79">
<path d="M100.258 526.195L100.287 517.287C100.294 515.214 102.566 513.897 104.425 514.991L112.168 519.547C114.027 520.641 113.979 523.266 112.169 524.279L104.397 528.63C102.556 529.661 100.251 528.305 100.258 526.195Z" stroke="#A7B5FF" stroke-opacity="0.1" stroke-width="2.94371"/>
</g>
<g opacity="0.99">
<path d="M325.605 368.268L317.26 364.725" stroke="#A7B5FF" stroke-opacity="0.1" stroke-width="2.94371" stroke-linecap="round"/>
<path d="M323.203 362.324L319.661 370.67" stroke="#A7B5FF" stroke-opacity="0.1" stroke-width="2.94371" stroke-linecap="round"/>
</g>
<g opacity="0.82">
<path d="M624.33 209.696L627.287 209.521C628.895 209.426 630.126 208.028 630.053 206.419V206.419C629.979 204.81 631.211 203.412 632.819 203.317L635.776 203.143" stroke="#A7B5FF" stroke-opacity="0.1" stroke-width="2.94371" stroke-linecap="round" stroke-linejoin="round"/>
</g>
<g opacity="0.82">
<path d="M902.992 703.816L905.753 702.743C907.254 702.159 908.956 702.917 909.559 704.41V704.41C910.163 705.904 911.865 706.661 913.366 706.078L916.127 705.005" stroke="#A7B5FF" stroke-opacity="0.1" stroke-width="2.94371" stroke-linecap="round" stroke-linejoin="round"/>
</g>
<g opacity="0.82">
<path d="M746.105 380.187L744.778 382.836C744.056 384.275 744.651 386.041 746.081 386.782V386.782C747.511 387.522 748.106 389.288 747.384 390.728L746.057 393.376" stroke="#A7B5FF" stroke-opacity="0.1" stroke-width="2.94371" stroke-linecap="round" stroke-linejoin="round"/>
</g>
<g opacity="0.82">
<path d="M229.549 506.259L232.367 505.348C233.9 504.853 234.742 503.191 234.267 501.652V501.652C233.792 500.113 234.634 498.451 236.166 497.955L238.985 497.045" stroke="#A7B5FF" stroke-opacity="0.1" stroke-width="2.94371" stroke-linecap="round" stroke-linejoin="round"/>
</g>
<g opacity="0.84">
<path d="M579.596 302.287C579.066 304.367 576.465 305.113 574.914 303.63L570.644 299.547C569.092 298.063 569.754 295.462 571.835 294.865L577.562 293.223C579.644 292.626 581.583 294.482 581.053 296.563L579.596 302.287Z" fill="#A7B5FF" fill-opacity="0.1"/>
</g>
<g opacity="0.84">
<path d="M598.209 668.519C596.672 667.02 597.327 664.395 599.387 663.793L605.057 662.137C607.118 661.535 609.04 663.409 608.516 665.509L607.075 671.29C606.551 673.391 603.975 674.143 602.437 672.644L598.209 668.519Z" fill="#A7B5FF" fill-opacity="0.1"/>
</g>
<g opacity="0.74">
<path d="M730.864 259.798C732.926 260.062 733.949 262.473 732.707 264.139L729.288 268.724C728.045 270.391 725.466 270.062 724.647 268.132L722.393 262.822C721.574 260.892 723.128 258.809 725.191 259.073L730.864 259.798Z" fill="#A7B5FF" fill-opacity="0.1"/>
</g>
<g opacity="0.74">
<path d="M983.965 615.794C985.729 614.695 985.655 612.077 983.831 611.08L978.813 608.336C976.988 607.339 974.782 608.712 974.841 610.808L975.004 616.574C975.064 618.67 977.344 619.916 979.109 618.817L983.965 615.794Z" fill="#A7B5FF" fill-opacity="0.1"/>
</g>
<g opacity="0.84">
<path d="M120.244 32.7802L129.966 30.3047C132.372 29.6922 134.568 31.9319 133.86 34.4018L131.071 44.1288C130.363 46.5987 127.313 47.3341 125.598 45.5399L118.664 38.2884C116.923 36.4675 117.802 33.4019 120.244 32.7802Z" stroke="#A7B5FF" stroke-opacity="0.1" stroke-width="2.94371"/>
</g>
<g opacity="0.84">
<path d="M974.926 335.177C978.468 334.313 981.66 337.618 980.672 341.128L977.955 350.785C976.967 354.296 972.539 355.378 969.984 352.733L962.955 345.454C960.401 342.809 961.636 338.42 965.179 337.556L974.926 335.177Z" fill="#A7B5FF" fill-opacity="0.1"/>
</g>
<g opacity="0.84">
<path d="M333.86 644.292C337.402 643.428 340.593 646.733 339.606 650.243L336.889 659.9C335.901 663.411 331.472 664.493 328.918 661.848L321.889 654.569C319.334 651.924 320.57 647.536 324.113 646.671L333.86 644.292Z" fill="#A7B5FF" fill-opacity="0.1"/>
</g>
<g opacity="0.7">
<path d="M434.83 196.633L441.868 200.065" stroke="#A7B5FF" stroke-opacity="0.1" stroke-width="2.94371" stroke-linecap="round"/>
<path d="M436.633 201.869L440.065 194.831" stroke="#A7B5FF" stroke-opacity="0.1" stroke-width="2.94371" stroke-linecap="round"/>
</g>
<g opacity="0.7">
<path d="M946.148 56.4922L952.939 52.5932" stroke="#A7B5FF" stroke-opacity="0.1" stroke-width="2.94371" stroke-linecap="round"/>
<path d="M951.494 57.9395L947.595 51.1489" stroke="#A7B5FF" stroke-opacity="0.1" stroke-width="2.94371" stroke-linecap="round"/>
</g>
<g opacity="0.7">
<path d="M687.951 587.516L681.46 591.894" stroke="#A7B5FF" stroke-opacity="0.1" stroke-width="2.94371" stroke-linecap="round"/>
<path d="M682.516 586.461L686.894 592.953" stroke="#A7B5FF" stroke-opacity="0.1" stroke-width="2.94371" stroke-linecap="round"/>
</g>
<g opacity="0.7">
<path d="M276.541 56.6309L283.579 60.0634" stroke="#A7B5FF" stroke-opacity="0.1" stroke-width="2.94371" stroke-linecap="round"/>
<path d="M278.344 61.8672L281.776 54.8294" stroke="#A7B5FF" stroke-opacity="0.1" stroke-width="2.94371" stroke-linecap="round"/>
</g>
<g opacity="0.7">
<path d="M897.674 530.15L891.182 534.529" stroke="#A7B5FF" stroke-opacity="0.1" stroke-width="2.94371" stroke-linecap="round"/>
<path d="M892.236 529.094L896.615 535.585" stroke="#A7B5FF" stroke-opacity="0.1" stroke-width="2.94371" stroke-linecap="round"/>
</g>
<g opacity="0.7">
<path d="M82.8066 405.342L89.8444 408.774" stroke="#A7B5FF" stroke-opacity="0.1" stroke-width="2.94371" stroke-linecap="round"/>
<path d="M84.6094 410.576L88.0419 403.538" stroke="#A7B5FF" stroke-opacity="0.1" stroke-width="2.94371" stroke-linecap="round"/>
</g>
<g opacity="0.7">
<path d="M717.664 169.518L711.172 173.896" stroke="#A7B5FF" stroke-opacity="0.1" stroke-width="2.94371" stroke-linecap="round"/>
<path d="M712.229 168.461L716.607 174.953" stroke="#A7B5FF" stroke-opacity="0.1" stroke-width="2.94371" stroke-linecap="round"/>
</g>
<g opacity="0.7">
<path d="M127.164 633.762L134.838 635.319" stroke="#A7B5FF" stroke-opacity="0.1" stroke-width="2.94371" stroke-linecap="round"/>
<path d="M130.221 638.377L131.778 630.703" stroke="#A7B5FF" stroke-opacity="0.1" stroke-width="2.94371" stroke-linecap="round"/>
</g>
<path d="M984.729 140.793L992.295 148.865C994.249 150.949 993.208 154.402 990.334 155.058L979.455 157.542C976.582 158.198 974.145 155.54 975.001 152.814L978.313 142.258C979.18 139.496 982.749 138.681 984.729 140.793Z" stroke="#A7B5FF" stroke-opacity="0.1" stroke-width="2.94371"/>
<path d="M417.729 478.793L425.295 486.865C427.249 488.949 426.208 492.402 423.334 493.058L412.455 495.542C409.582 496.198 407.145 493.54 408.001 490.814L411.313 480.258C412.18 477.496 415.749 476.681 417.729 478.793Z" stroke="#A7B5FF" stroke-opacity="0.1" stroke-width="2.94371"/>
<g style="mix-blend-mode:color-burn">
<rect width="1025" height="766" fill="url(#paint0_linear)" fill-opacity="0.6"/>
</g>
<defs>
<linearGradient id="paint0_linear" x1="973.5" y1="737.5" x2="45.5" y2="21.5" gradientUnits="userSpaceOnUse">
<stop stop-color="#8D33FF"/>
<stop offset="0.505208" stop-color="#4D30FF"/>
<stop offset="1" stop-color="#18ACFF"/>
</linearGradient>
</defs>
</svg>
