<svg width="1025" height="766" viewBox="0 0 1025 766" fill="none" xmlns="http://www.w3.org/2000/svg">
<path fill-rule="evenodd" clip-rule="evenodd" d="M117.601 39.3059C115.081 36.6707 116.348 32.2538 119.881 31.3542L129.603 28.8786C133.138 27.9787 136.289 31.273 135.275 34.8078L132.486 44.5348C131.473 48.0696 127.055 49.1933 124.534 46.5573L117.601 39.3059ZM120.607 34.2068L130.33 31.7313C131.607 31.4062 132.849 32.5914 132.446 33.9964L129.657 43.7234C129.254 45.1283 127.573 45.4755 126.662 44.523L119.729 37.2716C118.766 36.2649 119.258 34.5505 120.607 34.2068Z" fill="url(#paint0_linear)" fill-opacity="0.1"/>
<path d="M386.528 87.2056C385.535 90.0878 382.394 91.6198 379.512 90.6273C376.63 89.6349 375.098 86.4939 376.09 83.6116C377.083 80.7294 380.224 79.1974 383.106 80.1898C385.988 81.1823 387.52 84.3233 386.528 87.2056Z" fill="url(#paint1_linear)" fill-opacity="0.1"/>
<path d="M756.622 75.4089C754.622 73.1083 754.866 69.6221 757.167 67.6222C759.467 65.6224 762.954 65.8661 764.953 68.1667C766.953 70.4673 766.71 73.9536 764.409 75.9534C762.108 77.9533 758.622 77.7095 756.622 75.4089Z" fill="url(#paint2_linear)" fill-opacity="0.1"/>
<path d="M343.039 537.144C345.478 535.315 345.972 531.856 344.143 529.417C342.315 526.978 338.855 526.483 336.416 528.312C333.977 530.141 333.483 533.6 335.312 536.039C337.14 538.478 340.6 538.973 343.039 537.144Z" fill="url(#paint3_linear)" fill-opacity="0.1"/>
<path d="M759.117 710.658C759.409 705.077 764.17 700.79 769.751 701.083C775.332 701.375 779.619 706.136 779.327 711.717C779.034 717.298 774.273 721.585 768.692 721.293C763.111 721 758.824 716.239 759.117 710.658Z" fill="url(#paint4_linear)" fill-opacity="0.1"/>
<path fill-rule="evenodd" clip-rule="evenodd" d="M70.2034 690.626C65.2239 693.164 59.1305 691.184 56.5933 686.204C54.0562 681.225 56.0361 675.131 61.0155 672.594C65.995 670.057 72.0884 672.037 74.6256 677.016C77.1627 681.996 75.1828 688.089 70.2034 690.626ZM68.867 688.004C65.3361 689.803 61.0153 688.399 59.2162 684.868C57.4171 681.337 58.821 677.016 62.3519 675.217C65.8828 673.418 70.2036 674.822 72.0027 678.353C73.8018 681.884 72.3978 686.204 68.867 688.004Z" fill="url(#paint5_linear)" fill-opacity="0.1"/>
<path d="M797.144 327.182C797.436 321.601 802.198 317.314 807.779 317.606C813.36 317.899 817.647 322.66 817.354 328.241C817.062 333.822 812.3 338.109 806.719 337.816C801.139 337.524 796.851 332.763 797.144 327.182Z" fill="url(#paint6_linear)" fill-opacity="0.1"/>
<path d="M110.484 173.752C110.597 172.947 110.036 172.203 109.231 172.09C108.426 171.977 107.682 172.538 107.569 173.343L107.107 176.629L103.821 176.167C103.016 176.054 102.271 176.615 102.158 177.42C102.045 178.225 102.606 178.969 103.411 179.082L106.697 179.544L106.235 182.831C106.122 183.636 106.683 184.38 107.488 184.494C108.293 184.607 109.037 184.046 109.151 183.241L109.612 179.954L112.9 180.416C113.705 180.529 114.449 179.968 114.562 179.163C114.675 178.358 114.114 177.614 113.309 177.501L110.022 177.039L110.484 173.752Z" fill="url(#paint7_linear)" fill-opacity="0.1"/>
<path d="M879.069 319.281C879.71 319.781 880.635 319.668 881.135 319.027C881.636 318.387 881.522 317.462 880.882 316.961L878.266 314.917L880.308 312.303C880.809 311.662 880.695 310.737 880.055 310.237C879.414 309.736 878.489 309.85 877.989 310.49L875.946 313.105L873.331 311.062C872.69 310.562 871.765 310.675 871.265 311.316C870.765 311.956 870.878 312.881 871.519 313.382L874.133 315.425L872.09 318.041C871.589 318.681 871.703 319.606 872.343 320.107C872.984 320.607 873.909 320.494 874.409 319.853L876.453 317.237L879.069 319.281Z" fill="url(#paint8_linear)" fill-opacity="0.1"/>
<path d="M243.856 216.228C244.225 216.953 245.111 217.241 245.835 216.872C246.56 216.503 246.848 215.616 246.479 214.892L245.182 212.348L247.727 211.051C248.451 210.682 248.739 209.796 248.37 209.071C248.001 208.347 247.114 208.059 246.39 208.428L243.846 209.725L242.55 207.181C242.181 206.456 241.294 206.168 240.57 206.538C239.846 206.907 239.558 207.793 239.927 208.517L241.223 211.061L238.679 212.357C237.955 212.726 237.667 213.613 238.036 214.337C238.405 215.061 239.291 215.349 240.015 214.98L242.559 213.684L243.856 216.228Z" fill="url(#paint9_linear)" fill-opacity="0.1"/>
<path fill-rule="evenodd" clip-rule="evenodd" d="M804.417 139.137C801.426 137.031 800.707 132.9 802.813 129.908C804.918 126.917 809.049 126.198 812.041 128.304C815.032 130.409 815.751 134.541 813.646 137.532C811.54 140.523 807.409 141.242 804.417 139.137ZM806.111 136.729C804.449 135.56 804.05 133.264 805.22 131.602C806.389 129.94 808.685 129.541 810.347 130.711C812.009 131.881 812.408 134.176 811.238 135.838C810.069 137.5 807.773 137.899 806.111 136.729Z" fill="url(#paint10_linear)" fill-opacity="0.1"/>
<path fill-rule="evenodd" clip-rule="evenodd" d="M834.255 503.253C836.139 500.117 835.124 496.048 831.989 494.164C828.853 492.28 824.784 493.295 822.9 496.43C821.016 499.566 822.03 503.635 825.166 505.519C828.302 507.403 832.371 506.388 834.255 503.253ZM831.731 501.737C832.778 499.995 832.214 497.734 830.472 496.688C828.731 495.641 826.47 496.205 825.423 497.947C824.377 499.688 824.94 501.949 826.682 502.996C828.424 504.042 830.685 503.479 831.731 501.737Z" fill="url(#paint11_linear)" fill-opacity="0.1"/>
<path fill-rule="evenodd" clip-rule="evenodd" d="M540.633 413.715C540.697 410.058 543.714 407.145 547.371 407.208C551.028 407.272 553.942 410.289 553.878 413.946C553.814 417.604 550.797 420.517 547.14 420.453C543.482 420.389 540.569 417.373 540.633 413.715ZM543.576 413.766C543.612 411.735 545.288 410.116 547.32 410.152C549.351 410.187 550.97 411.863 550.934 413.895C550.899 415.927 549.223 417.545 547.191 417.51C545.159 417.474 543.541 415.798 543.576 413.766Z" fill="url(#paint12_linear)" fill-opacity="0.1"/>
<path fill-rule="evenodd" clip-rule="evenodd" d="M830.159 42.4318C830.742 44.7445 833.629 45.58 835.357 43.9358L840.112 39.4114C841.84 37.7667 841.112 34.8745 838.801 34.2059L832.442 32.3661C830.131 31.6975 827.971 33.754 828.554 36.0675L830.159 42.4318ZM831.409 35.3479L833.013 41.7122C833.025 41.7604 833.04 41.777 833.05 41.7872C833.067 41.8038 833.099 41.8262 833.147 41.8399C833.194 41.8536 833.233 41.8519 833.256 41.8467C833.27 41.8436 833.292 41.8375 833.328 41.8033L838.083 37.2789C838.104 37.2586 838.112 37.2457 838.114 37.2416C838.117 37.2371 838.118 37.2337 838.119 37.2298C838.122 37.2208 838.125 37.1967 838.116 37.1614C838.114 37.151 838.111 37.1414 838.107 37.1325C838.104 37.1266 838.102 37.121 838.099 37.1158C838.092 37.1023 838.084 37.0912 838.076 37.0828C838.066 37.0726 838.045 37.0515 837.983 37.0337L831.624 35.1938C831.562 35.1759 831.533 35.1823 831.519 35.1858C831.497 35.1915 831.469 35.2054 831.443 35.2305C831.432 35.2408 831.424 35.2506 831.418 35.2592C831.409 35.2716 831.405 35.2815 831.404 35.2868L831.403 35.2891L831.402 35.294L831.402 35.2994C831.401 35.3042 831.401 35.3194 831.409 35.3479Z" fill="url(#paint13_linear)" fill-opacity="0.1"/>
<path fill-rule="evenodd" clip-rule="evenodd" d="M545.753 162.521C542.623 163.343 539.738 160.458 540.56 157.328L542.823 148.712C543.645 145.581 547.56 144.551 549.868 146.86L556.221 153.213C558.53 155.521 557.5 159.436 554.369 160.258L545.753 162.521ZM543.407 158.075L545.67 149.46C545.901 148.581 547.045 148.2 547.787 148.942L554.14 155.294C554.881 156.036 554.5 157.18 553.621 157.411L545.006 159.674C544.054 159.924 543.157 159.027 543.407 158.075Z" fill="url(#paint14_linear)" fill-opacity="0.1"/>
<path fill-rule="evenodd" clip-rule="evenodd" d="M98.7865 526.19C98.7759 529.427 102.292 531.496 105.116 529.915L112.889 525.564C115.714 523.982 115.728 519.934 112.915 518.279L105.171 513.722C102.358 512.067 98.8263 514.045 98.8157 517.283L98.7865 526.19ZM101.759 517.293L101.73 526.2C101.727 527.184 102.82 527.827 103.678 527.346L111.451 522.995C112.244 522.551 112.326 521.348 111.422 520.816L103.679 516.26C102.774 515.728 101.762 516.384 101.759 517.293Z" fill="url(#paint15_linear)" fill-opacity="0.1"/>
<path d="M325.03 369.623C325.779 369.941 326.643 369.592 326.96 368.843C327.278 368.095 326.929 367.231 326.181 366.913L323.363 365.717L324.559 362.9C324.876 362.152 324.527 361.288 323.779 360.97C323.031 360.652 322.167 361.001 321.849 361.75L320.653 364.567L317.835 363.371C317.087 363.053 316.222 363.402 315.905 364.151C315.587 364.899 315.936 365.763 316.685 366.081L319.503 367.277L318.306 370.096C317.989 370.844 318.338 371.708 319.086 372.026C319.834 372.343 320.699 371.994 321.016 371.246L322.213 368.427L325.03 369.623Z" fill="url(#paint16_linear)" fill-opacity="0.1"/>
<path d="M624.244 208.226C623.433 208.274 622.814 208.971 622.861 209.782C622.909 210.593 623.606 211.212 624.418 211.165L627.375 210.99C629.805 210.846 631.634 208.746 631.524 206.352C631.486 205.529 632.121 204.833 632.906 204.786L635.863 204.612C636.675 204.564 637.294 203.867 637.246 203.056C637.198 202.244 636.501 201.625 635.69 201.673L632.733 201.848C630.303 201.991 628.474 204.091 628.583 206.486C628.621 207.309 627.987 208.005 627.201 208.051L624.244 208.226Z" fill="url(#paint17_linear)" fill-opacity="0.1"/>
<path d="M901.621 704.351C901.916 705.109 902.769 705.484 903.527 705.19L906.288 704.116C907.021 703.831 907.888 704.2 908.196 704.964C909.094 707.186 911.632 708.333 913.901 707.451L916.662 706.378C917.42 706.084 917.795 705.231 917.5 704.473C917.206 703.715 916.353 703.34 915.595 703.635L912.834 704.708C912.101 704.993 911.234 704.625 910.926 703.861C910.028 701.638 907.49 700.491 905.221 701.373L902.46 702.446C901.702 702.741 901.327 703.593 901.621 704.351Z" fill="url(#paint18_linear)" fill-opacity="0.1"/>
<path d="M747.42 380.847C747.785 380.12 747.491 379.236 746.764 378.872C746.037 378.507 745.153 378.801 744.789 379.528L743.461 382.176C742.371 384.352 743.275 386.986 745.404 388.089C746.135 388.468 746.421 389.365 746.068 390.068L744.741 392.717C744.377 393.443 744.67 394.328 745.397 394.692C746.124 395.056 747.008 394.762 747.372 394.036L748.7 391.387C749.791 389.211 748.886 386.577 746.757 385.475C746.026 385.096 745.74 384.199 746.093 383.495L747.42 380.847Z" fill="url(#paint19_linear)" fill-opacity="0.1"/>
<path d="M228.149 506.711C227.899 505.938 228.323 505.108 229.097 504.858L231.915 503.947C232.664 503.705 233.104 502.873 232.861 502.085C232.154 499.795 233.398 497.303 235.714 496.555L238.533 495.644C239.306 495.394 240.136 495.818 240.386 496.592C240.636 497.365 240.211 498.195 239.438 498.445L236.619 499.356C235.87 499.598 235.431 500.43 235.674 501.218C236.38 503.508 235.137 506 232.82 506.748L230.002 507.659C229.228 507.909 228.398 507.485 228.149 506.711Z" fill="url(#paint20_linear)" fill-opacity="0.1"/>
<path d="M574.914 303.63C576.466 305.113 579.066 304.368 579.596 302.287L581.054 296.563C581.584 294.482 579.644 292.627 577.563 293.223L571.836 294.866C569.754 295.462 569.093 298.064 570.645 299.548L574.914 303.63Z" fill="url(#paint21_linear)" fill-opacity="0.1"/>
<path d="M598.209 668.52C596.672 667.021 597.327 664.396 599.387 663.794L605.057 662.137C607.119 661.535 609.041 663.409 608.517 665.51L607.076 671.291C606.552 673.391 603.975 674.143 602.438 672.644L598.209 668.52Z" fill="url(#paint22_linear)" fill-opacity="0.1"/>
<path d="M732.707 264.139C733.95 262.473 732.926 260.062 730.865 259.798L725.191 259.073C723.129 258.81 721.575 260.893 722.394 262.822L724.648 268.132C725.467 270.062 728.045 270.391 729.288 268.724L732.707 264.139Z" fill="url(#paint23_linear)" fill-opacity="0.1"/>
<path d="M983.965 615.794C985.73 614.695 985.655 612.077 983.832 611.08L978.813 608.336C976.989 607.339 974.782 608.712 974.841 610.808L975.005 616.574C975.064 618.67 977.345 619.916 979.11 618.817L983.965 615.794Z" fill="url(#paint24_linear)" fill-opacity="0.1"/>
<path d="M974.926 335.177C978.468 334.313 981.66 337.618 980.673 341.128L977.955 350.785C976.968 354.296 972.539 355.378 969.985 352.733L962.955 345.454C960.401 342.809 961.637 338.421 965.18 337.556L974.926 335.177Z" fill="url(#paint25_linear)" fill-opacity="0.1"/>
<path d="M339.606 650.243C340.594 646.734 337.402 643.428 333.86 644.293L324.113 646.671C320.57 647.536 319.335 651.924 321.889 654.569L328.918 661.848C331.473 664.493 335.901 663.411 336.889 659.901L339.606 650.243Z" fill="url(#paint26_linear)" fill-opacity="0.1"/>
<path d="M433.507 195.988C433.863 195.257 434.744 194.954 435.475 195.31L437.672 196.382L438.743 194.185C439.099 193.454 439.98 193.151 440.711 193.507C441.442 193.864 441.745 194.745 441.389 195.476L440.317 197.672L442.513 198.743C443.243 199.099 443.547 199.98 443.191 200.711C442.834 201.442 441.953 201.745 441.222 201.389L439.027 200.318L437.956 202.513C437.6 203.244 436.719 203.547 435.988 203.191C435.257 202.835 434.954 201.954 435.31 201.223L436.381 199.027L434.185 197.956C433.454 197.6 433.151 196.719 433.507 195.988Z" fill="url(#paint27_linear)" fill-opacity="0.1"/>
<path d="M944.875 57.2258C944.47 56.5209 944.714 55.6213 945.418 55.2165L947.538 53.9997L946.322 51.8816C945.917 51.1766 946.16 50.277 946.865 49.8723C947.57 49.4675 948.47 49.7108 948.874 50.4158L950.091 52.5339L952.209 51.3176C952.914 50.9128 953.813 51.1561 954.218 51.8611C954.623 52.566 954.38 53.4656 953.675 53.8704L951.556 55.0868L952.773 57.2063C953.178 57.9113 952.935 58.8108 952.23 59.2156C951.525 59.6204 950.625 59.377 950.221 58.6721L949.003 56.5525L946.884 57.7694C946.179 58.1741 945.28 57.9308 944.875 57.2258Z" fill="url(#paint28_linear)" fill-opacity="0.1"/>
<path d="M689.175 586.693C689.63 587.367 689.452 588.282 688.778 588.737L686.751 590.103L688.117 592.129C688.572 592.802 688.394 593.717 687.72 594.172C687.046 594.626 686.131 594.448 685.677 593.775L684.311 591.75L682.286 593.115C681.612 593.57 680.698 593.392 680.243 592.718C679.788 592.044 679.966 591.129 680.64 590.675L682.665 589.309L681.298 587.283C680.843 586.609 681.021 585.694 681.695 585.24C682.369 584.785 683.284 584.963 683.738 585.637L685.105 587.663L687.132 586.296C687.806 585.841 688.72 586.019 689.175 586.693Z" fill="url(#paint29_linear)" fill-opacity="0.1"/>
<path d="M275.218 55.986C275.574 55.2554 276.455 54.952 277.186 55.3083L279.383 56.38L280.454 54.1851C280.81 53.4545 281.691 53.1511 282.422 53.5074C283.153 53.8638 283.456 54.7449 283.1 55.4755L282.029 57.6705L284.224 58.7409C284.954 59.0973 285.258 59.9784 284.901 60.709C284.545 61.4396 283.664 61.743 282.933 61.3867L280.739 60.3163L279.667 62.5133C279.311 63.2439 278.43 63.5474 277.699 63.191C276.968 62.8347 276.665 61.9535 277.021 61.2229L278.093 59.0258L275.896 57.9541C275.165 57.5978 274.862 56.7166 275.218 55.986Z" fill="url(#paint30_linear)" fill-opacity="0.1"/>
<path d="M898.894 529.326C899.348 530 899.171 530.915 898.497 531.369L896.47 532.736L897.836 534.761C898.29 535.435 898.113 536.35 897.439 536.805C896.765 537.259 895.85 537.081 895.395 536.407L894.029 534.382L892.005 535.748C891.331 536.202 890.416 536.025 889.962 535.351C889.507 534.677 889.685 533.762 890.359 533.307L892.383 531.942L891.017 529.916C890.562 529.242 890.74 528.327 891.414 527.873C892.088 527.418 893.003 527.596 893.457 528.27L894.824 530.296L896.85 528.929C897.524 528.474 898.439 528.652 898.894 529.326Z" fill="url(#paint31_linear)" fill-opacity="0.1"/>
<path d="M81.4835 404.697C81.8398 403.966 82.721 403.663 83.4516 404.019L85.6482 405.091L86.7195 402.894C87.0758 402.163 87.957 401.86 88.6876 402.216C89.4182 402.573 89.7216 403.454 89.3653 404.185L88.294 406.381L90.4894 407.452C91.22 407.808 91.5234 408.689 91.1671 409.42C90.8107 410.151 89.9296 410.454 89.199 410.098L87.0035 409.027L85.9327 411.222C85.5764 411.953 84.6952 412.256 83.9646 411.9C83.234 411.544 82.9306 410.662 83.2869 409.932L84.3577 407.736L82.1612 406.665C81.4306 406.309 81.1272 405.428 81.4835 404.697Z" fill="url(#paint32_linear)" fill-opacity="0.1"/>
<path d="M718.886 168.695C719.34 169.369 719.163 170.284 718.489 170.738L716.463 172.105L717.828 174.129C718.283 174.802 718.105 175.717 717.431 176.172C716.757 176.626 715.842 176.449 715.388 175.775L714.023 173.751L711.997 175.117C711.323 175.572 710.408 175.394 709.954 174.72C709.499 174.046 709.677 173.131 710.351 172.677L712.376 171.31L711.009 169.283C710.554 168.609 710.732 167.694 711.406 167.24C712.08 166.785 712.995 166.963 713.449 167.637L714.817 169.664L716.843 168.298C717.517 167.843 718.431 168.021 718.886 168.695Z" fill="url(#paint33_linear)" fill-opacity="0.1"/>
<path d="M125.721 633.468C125.883 632.671 126.659 632.157 127.456 632.318L129.851 632.804L130.337 630.412C130.498 629.615 131.275 629.1 132.072 629.262C132.869 629.424 133.383 630.201 133.222 630.997L132.736 633.39L135.13 633.876C135.927 634.037 136.441 634.814 136.28 635.611C136.118 636.408 135.341 636.922 134.544 636.761L132.151 636.275L131.664 638.671C131.503 639.468 130.726 639.982 129.929 639.821C129.132 639.659 128.618 638.882 128.779 638.086L129.266 635.689L126.871 635.203C126.074 635.042 125.559 634.265 125.721 633.468Z" fill="url(#paint34_linear)" fill-opacity="0.1"/>
<path fill-rule="evenodd" clip-rule="evenodd" d="M985.803 139.786C983.053 136.853 978.113 137.981 976.909 141.817L973.597 152.374C972.392 156.211 975.83 159.88 979.783 158.977L990.662 156.493C994.616 155.59 996.12 150.793 993.369 147.859L985.803 139.786ZM991.222 149.872L983.655 141.8C982.446 140.51 980.247 141.012 979.718 142.699L976.405 153.255C975.898 154.87 977.334 156.517 979.128 156.108L990.007 153.623C991.801 153.214 992.379 151.107 991.222 149.872Z" fill="url(#paint35_linear)" fill-opacity="0.1"/>
<path fill-rule="evenodd" clip-rule="evenodd" d="M409.909 479.817C411.113 475.981 416.053 474.853 418.803 477.787L426.369 485.859C429.12 488.793 427.616 493.59 423.662 494.493L412.783 496.977C408.83 497.88 405.392 494.211 406.597 490.374L409.909 479.817ZM416.655 479.8L424.222 487.872C425.379 489.107 424.801 491.214 423.007 491.623L412.128 494.108C410.334 494.517 408.898 492.87 409.405 491.255L412.718 480.699C413.247 479.012 415.446 478.51 416.655 479.8Z" fill="url(#paint36_linear)" fill-opacity="0.1"/>
<defs>
<linearGradient id="paint0_linear" x1="973.5" y1="737.5" x2="45.5" y2="21.5" gradientUnits="userSpaceOnUse">
<stop stop-color="#8D33FF"/>
<stop offset="0.505208" stop-color="#4D30FF"/>
<stop offset="1" stop-color="#18ACFF"/>
</linearGradient>
<linearGradient id="paint1_linear" x1="973.5" y1="737.5" x2="45.5" y2="21.5" gradientUnits="userSpaceOnUse">
<stop stop-color="#8D33FF"/>
<stop offset="0.505208" stop-color="#4D30FF"/>
<stop offset="1" stop-color="#18ACFF"/>
</linearGradient>
<linearGradient id="paint2_linear" x1="973.5" y1="737.5" x2="45.5" y2="21.5" gradientUnits="userSpaceOnUse">
<stop stop-color="#8D33FF"/>
<stop offset="0.505208" stop-color="#4D30FF"/>
<stop offset="1" stop-color="#18ACFF"/>
</linearGradient>
<linearGradient id="paint3_linear" x1="973.5" y1="737.5" x2="45.5" y2="21.5" gradientUnits="userSpaceOnUse">
<stop stop-color="#8D33FF"/>
<stop offset="0.505208" stop-color="#4D30FF"/>
<stop offset="1" stop-color="#18ACFF"/>
</linearGradient>
<linearGradient id="paint4_linear" x1="973.5" y1="737.5" x2="45.5" y2="21.5" gradientUnits="userSpaceOnUse">
<stop stop-color="#8D33FF"/>
<stop offset="0.505208" stop-color="#4D30FF"/>
<stop offset="1" stop-color="#18ACFF"/>
</linearGradient>
<linearGradient id="paint5_linear" x1="973.5" y1="737.5" x2="45.5" y2="21.5" gradientUnits="userSpaceOnUse">
<stop stop-color="#8D33FF"/>
<stop offset="0.505208" stop-color="#4D30FF"/>
<stop offset="1" stop-color="#18ACFF"/>
</linearGradient>
<linearGradient id="paint6_linear" x1="973.5" y1="737.5" x2="45.5" y2="21.5" gradientUnits="userSpaceOnUse">
<stop stop-color="#8D33FF"/>
<stop offset="0.505208" stop-color="#4D30FF"/>
<stop offset="1" stop-color="#18ACFF"/>
</linearGradient>
<linearGradient id="paint7_linear" x1="973.5" y1="737.5" x2="45.5" y2="21.5" gradientUnits="userSpaceOnUse">
<stop stop-color="#8D33FF"/>
<stop offset="0.505208" stop-color="#4D30FF"/>
<stop offset="1" stop-color="#18ACFF"/>
</linearGradient>
<linearGradient id="paint8_linear" x1="973.5" y1="737.5" x2="45.5" y2="21.5" gradientUnits="userSpaceOnUse">
<stop stop-color="#8D33FF"/>
<stop offset="0.505208" stop-color="#4D30FF"/>
<stop offset="1" stop-color="#18ACFF"/>
</linearGradient>
<linearGradient id="paint9_linear" x1="973.5" y1="737.5" x2="45.5" y2="21.5" gradientUnits="userSpaceOnUse">
<stop stop-color="#8D33FF"/>
<stop offset="0.505208" stop-color="#4D30FF"/>
<stop offset="1" stop-color="#18ACFF"/>
</linearGradient>
<linearGradient id="paint10_linear" x1="973.5" y1="737.5" x2="45.5" y2="21.5" gradientUnits="userSpaceOnUse">
<stop stop-color="#8D33FF"/>
<stop offset="0.505208" stop-color="#4D30FF"/>
<stop offset="1" stop-color="#18ACFF"/>
</linearGradient>
<linearGradient id="paint11_linear" x1="973.5" y1="737.5" x2="45.5" y2="21.5" gradientUnits="userSpaceOnUse">
<stop stop-color="#8D33FF"/>
<stop offset="0.505208" stop-color="#4D30FF"/>
<stop offset="1" stop-color="#18ACFF"/>
</linearGradient>
<linearGradient id="paint12_linear" x1="973.5" y1="737.5" x2="45.5" y2="21.5" gradientUnits="userSpaceOnUse">
<stop stop-color="#8D33FF"/>
<stop offset="0.505208" stop-color="#4D30FF"/>
<stop offset="1" stop-color="#18ACFF"/>
</linearGradient>
<linearGradient id="paint13_linear" x1="973.5" y1="737.5" x2="45.5" y2="21.5" gradientUnits="userSpaceOnUse">
<stop stop-color="#8D33FF"/>
<stop offset="0.505208" stop-color="#4D30FF"/>
<stop offset="1" stop-color="#18ACFF"/>
</linearGradient>
<linearGradient id="paint14_linear" x1="973.5" y1="737.5" x2="45.5" y2="21.5" gradientUnits="userSpaceOnUse">
<stop stop-color="#8D33FF"/>
<stop offset="0.505208" stop-color="#4D30FF"/>
<stop offset="1" stop-color="#18ACFF"/>
</linearGradient>
<linearGradient id="paint15_linear" x1="973.5" y1="737.5" x2="45.5" y2="21.5" gradientUnits="userSpaceOnUse">
<stop stop-color="#8D33FF"/>
<stop offset="0.505208" stop-color="#4D30FF"/>
<stop offset="1" stop-color="#18ACFF"/>
</linearGradient>
<linearGradient id="paint16_linear" x1="973.5" y1="737.5" x2="45.5" y2="21.5" gradientUnits="userSpaceOnUse">
<stop stop-color="#8D33FF"/>
<stop offset="0.505208" stop-color="#4D30FF"/>
<stop offset="1" stop-color="#18ACFF"/>
</linearGradient>
<linearGradient id="paint17_linear" x1="973.5" y1="737.5" x2="45.5" y2="21.5" gradientUnits="userSpaceOnUse">
<stop stop-color="#8D33FF"/>
<stop offset="0.505208" stop-color="#4D30FF"/>
<stop offset="1" stop-color="#18ACFF"/>
</linearGradient>
<linearGradient id="paint18_linear" x1="973.5" y1="737.5" x2="45.5" y2="21.5" gradientUnits="userSpaceOnUse">
<stop stop-color="#8D33FF"/>
<stop offset="0.505208" stop-color="#4D30FF"/>
<stop offset="1" stop-color="#18ACFF"/>
</linearGradient>
<linearGradient id="paint19_linear" x1="973.5" y1="737.5" x2="45.5" y2="21.5" gradientUnits="userSpaceOnUse">
<stop stop-color="#8D33FF"/>
<stop offset="0.505208" stop-color="#4D30FF"/>
<stop offset="1" stop-color="#18ACFF"/>
</linearGradient>
<linearGradient id="paint20_linear" x1="973.5" y1="737.5" x2="45.5" y2="21.5" gradientUnits="userSpaceOnUse">
<stop stop-color="#8D33FF"/>
<stop offset="0.505208" stop-color="#4D30FF"/>
<stop offset="1" stop-color="#18ACFF"/>
</linearGradient>
<linearGradient id="paint21_linear" x1="973.5" y1="737.5" x2="45.5" y2="21.5" gradientUnits="userSpaceOnUse">
<stop stop-color="#8D33FF"/>
<stop offset="0.505208" stop-color="#4D30FF"/>
<stop offset="1" stop-color="#18ACFF"/>
</linearGradient>
<linearGradient id="paint22_linear" x1="973.5" y1="737.5" x2="45.5" y2="21.5" gradientUnits="userSpaceOnUse">
<stop stop-color="#8D33FF"/>
<stop offset="0.505208" stop-color="#4D30FF"/>
<stop offset="1" stop-color="#18ACFF"/>
</linearGradient>
<linearGradient id="paint23_linear" x1="973.5" y1="737.5" x2="45.5" y2="21.5" gradientUnits="userSpaceOnUse">
<stop stop-color="#8D33FF"/>
<stop offset="0.505208" stop-color="#4D30FF"/>
<stop offset="1" stop-color="#18ACFF"/>
</linearGradient>
<linearGradient id="paint24_linear" x1="973.5" y1="737.5" x2="45.5" y2="21.5" gradientUnits="userSpaceOnUse">
<stop stop-color="#8D33FF"/>
<stop offset="0.505208" stop-color="#4D30FF"/>
<stop offset="1" stop-color="#18ACFF"/>
</linearGradient>
<linearGradient id="paint25_linear" x1="973.5" y1="737.5" x2="45.5" y2="21.5" gradientUnits="userSpaceOnUse">
<stop stop-color="#8D33FF"/>
<stop offset="0.505208" stop-color="#4D30FF"/>
<stop offset="1" stop-color="#18ACFF"/>
</linearGradient>
<linearGradient id="paint26_linear" x1="973.5" y1="737.5" x2="45.5" y2="21.5" gradientUnits="userSpaceOnUse">
<stop stop-color="#8D33FF"/>
<stop offset="0.505208" stop-color="#4D30FF"/>
<stop offset="1" stop-color="#18ACFF"/>
</linearGradient>
<linearGradient id="paint27_linear" x1="973.5" y1="737.5" x2="45.5" y2="21.5" gradientUnits="userSpaceOnUse">
<stop stop-color="#8D33FF"/>
<stop offset="0.505208" stop-color="#4D30FF"/>
<stop offset="1" stop-color="#18ACFF"/>
</linearGradient>
<linearGradient id="paint28_linear" x1="973.5" y1="737.5" x2="45.5" y2="21.5" gradientUnits="userSpaceOnUse">
<stop stop-color="#8D33FF"/>
<stop offset="0.505208" stop-color="#4D30FF"/>
<stop offset="1" stop-color="#18ACFF"/>
</linearGradient>
<linearGradient id="paint29_linear" x1="973.5" y1="737.5" x2="45.5" y2="21.5" gradientUnits="userSpaceOnUse">
<stop stop-color="#8D33FF"/>
<stop offset="0.505208" stop-color="#4D30FF"/>
<stop offset="1" stop-color="#18ACFF"/>
</linearGradient>
<linearGradient id="paint30_linear" x1="973.5" y1="737.5" x2="45.5" y2="21.5" gradientUnits="userSpaceOnUse">
<stop stop-color="#8D33FF"/>
<stop offset="0.505208" stop-color="#4D30FF"/>
<stop offset="1" stop-color="#18ACFF"/>
</linearGradient>
<linearGradient id="paint31_linear" x1="973.5" y1="737.5" x2="45.5" y2="21.5" gradientUnits="userSpaceOnUse">
<stop stop-color="#8D33FF"/>
<stop offset="0.505208" stop-color="#4D30FF"/>
<stop offset="1" stop-color="#18ACFF"/>
</linearGradient>
<linearGradient id="paint32_linear" x1="973.5" y1="737.5" x2="45.5" y2="21.5" gradientUnits="userSpaceOnUse">
<stop stop-color="#8D33FF"/>
<stop offset="0.505208" stop-color="#4D30FF"/>
<stop offset="1" stop-color="#18ACFF"/>
</linearGradient>
<linearGradient id="paint33_linear" x1="973.5" y1="737.5" x2="45.5" y2="21.5" gradientUnits="userSpaceOnUse">
<stop stop-color="#8D33FF"/>
<stop offset="0.505208" stop-color="#4D30FF"/>
<stop offset="1" stop-color="#18ACFF"/>
</linearGradient>
<linearGradient id="paint34_linear" x1="973.5" y1="737.5" x2="45.5" y2="21.5" gradientUnits="userSpaceOnUse">
<stop stop-color="#8D33FF"/>
<stop offset="0.505208" stop-color="#4D30FF"/>
<stop offset="1" stop-color="#18ACFF"/>
</linearGradient>
<linearGradient id="paint35_linear" x1="973.5" y1="737.5" x2="45.5" y2="21.5" gradientUnits="userSpaceOnUse">
<stop stop-color="#8D33FF"/>
<stop offset="0.505208" stop-color="#4D30FF"/>
<stop offset="1" stop-color="#18ACFF"/>
</linearGradient>
<linearGradient id="paint36_linear" x1="973.5" y1="737.5" x2="45.5" y2="21.5" gradientUnits="userSpaceOnUse">
<stop stop-color="#8D33FF"/>
<stop offset="0.505208" stop-color="#4D30FF"/>
<stop offset="1" stop-color="#18ACFF"/>
</linearGradient>
</defs>
</svg>
